HIERARCHY
ROOT Hips
{
	OFFSET 0.000000 71.427986 0.000000
	CHANNELS 6 Xposition Yposition Zposition Xrotation Yrotation Zrotation
	JOINT Pelvis
	{
		OFFSET 0.000000 0.000000 0.000000
		CHANNELS 3 Xrotation Yrotation Zrotation
		JOINT LeftUpLeg
		{
			OFFSET 6.797100 -2.508499 -1.318700
			CHANNELS 3 Xrotation Yrotation Zrotation
			JOINT LeftLeg
			{
				OFFSET 0.069008 -29.241863 0.690200
				CHANNELS 3 Xrotation Yrotation Zrotation
				JOINT LeftFoot
				{
					OFFSET -0.069008 -29.568123 -0.266800
					CHANNELS 3 Xrotation Yrotation Zrotation
					JOINT LeftToeBase
					{
						OFFSET 3.145500 -8.631000 16.059900
						CHANNELS 3 Xrotation Yrotation Zrotation
						End Site
						{
							OFFSET 0.000000 18.501587 0.000000
						}
					}
				}
			}
			JOINT Left_ShortSleeve
			{
				OFFSET 0.265923 -10.480953 1.153800
				CHANNELS 3 Xrotation Yrotation Zrotation
				End Site
				{
					OFFSET 1.725763 19.823879 0.000000
				}
			}
		}
		JOINT RightUpLeg
		{
			OFFSET -6.797100 -2.508499 -1.318700
			CHANNELS 3 Xrotation Yrotation Zrotation
			JOINT RightLeg
			{
				OFFSET -0.082453 -29.241932 0.688000
				CHANNELS 3 Xrotation Yrotation Zrotation
				JOINT RightFoot
				{
					OFFSET 0.082453 -29.568058 -0.264600
					CHANNELS 3 Xrotation Yrotation Zrotation
					JOINT RightToeBase
					{
						OFFSET -3.115300 -8.682800 16.113400
						CHANNELS 3 Xrotation Yrotation Zrotation
						End Site
						{
							OFFSET 0.000000 18.567114 0.000000
						}
					}
				}
			}
			JOINT Right_ShortSleeve
			{
				OFFSET -0.265923 -10.480953 1.153800
				CHANNELS 3 Xrotation Yrotation Zrotation
				End Site
				{
					OFFSET -1.725766 19.823910 0.000000
				}
			}
		}
	}
	JOINT Spine
	{
		OFFSET 0.000000 13.368103 0.470500
		CHANNELS 3 Xrotation Yrotation Zrotation
		JOINT Spine1
		{
			OFFSET 0.147000 13.837402 0.538800
			CHANNELS 3 Xrotation Yrotation Zrotation
			JOINT Spine2
			{
				OFFSET 0.168000 16.242897 -1.435500
				CHANNELS 3 Xrotation Yrotation Zrotation
				JOINT Neck
				{
					OFFSET 0.217200 18.631500 -1.679100
					CHANNELS 3 Xrotation Yrotation Zrotation
					JOINT Head
					{
						OFFSET 0.000000 6.599396 1.385900
						CHANNELS 3 Xrotation Yrotation Zrotation
						JOINT Hat
						{
							OFFSET -0.532200 27.220596 -10.096100
							CHANNELS 3 Xrotation Yrotation Zrotation
							End Site
							{
								OFFSET 0.000000 22.029861 0.000000
							}
						}
						JOINT HairD
						{
							OFFSET -10.777400 17.437393 -1.325900
							CHANNELS 3 Xrotation Yrotation Zrotation
							JOINT HairD1
							{
								OFFSET -3.290299 -11.051193 1.062200
								CHANNELS 3 Xrotation Yrotation Zrotation
								End Site
								{
									OFFSET 0.000000 11.579437 0.000000
								}
							}
						}
						JOINT HairB
						{
							OFFSET -10.777400 17.437393 1.467900
							CHANNELS 3 Xrotation Yrotation Zrotation
							JOINT HairB1
							{
								OFFSET -1.561200 -12.956299 3.590200
								CHANNELS 3 Xrotation Yrotation Zrotation
								End Site
								{
									OFFSET 0.000000 13.534866 0.000000
								}
							}
						}
						JOINT HairA
						{
							OFFSET 9.713100 17.437393 1.467900
							CHANNELS 3 Xrotation Yrotation Zrotation
							JOINT HairA1
							{
								OFFSET 1.561200 -12.956299 3.590200
								CHANNELS 3 Xrotation Yrotation Zrotation
								End Site
								{
									OFFSET 0.000000 13.534866 0.000000
								}
							}
						}
						JOINT HairC
						{
							OFFSET 9.713100 17.437393 -1.325900
							CHANNELS 3 Xrotation Yrotation Zrotation
							JOINT HairC1
							{
								OFFSET 3.290300 -11.051193 1.062200
								CHANNELS 3 Xrotation Yrotation Zrotation
								End Site
								{
									OFFSET 0.000000 11.579437 0.000000
								}
							}
						}
					}
				}
				JOINT LeftShoulder
				{
					OFFSET 5.101800 15.108002 -2.763700
					CHANNELS 3 Xrotation Yrotation Zrotation
					JOINT LeftArm
					{
						OFFSET 9.825497 2.506317 -1.597400
						CHANNELS 3 Xrotation Yrotation Zrotation
						JOINT LeftForeArm
						{
							OFFSET 21.966244 0.000000 0.000000
							CHANNELS 3 Xrotation Yrotation Zrotation
							JOINT LeftHand
							{
								OFFSET 33.879036 0.000000 0.000000
								CHANNELS 3 Xrotation Yrotation Zrotation
								JOINT LeftHandThumb1
								{
									OFFSET 6.715286 -2.359680 3.363841
									CHANNELS 3 Xrotation Yrotation Zrotation
									JOINT LeftHandThumb2
									{
										OFFSET 2.507072 -1.447464 1.447461
										CHANNELS 3 Xrotation Yrotation Zrotation
										JOINT LeftHandThumb3
										{
											OFFSET 2.898338 -1.673355 1.673357
											CHANNELS 3 Xrotation Yrotation Zrotation
											End Site
											{
												OFFSET -0.295959 3.727692 -0.131651
											}
										}
									}
								}
								JOINT LeftHandIndex1
								{
									OFFSET 14.190811 -0.254547 3.840278
									CHANNELS 3 Xrotation Yrotation Zrotation
									JOINT LeftHandIndex2
									{
										OFFSET 3.551727 0.000000 -0.000000
										CHANNELS 3 Xrotation Yrotation Zrotation
										JOINT LeftHandIndex3
										{
											OFFSET 2.894196 0.000000 0.000000
											CHANNELS 3 Xrotation Yrotation Zrotation
											End Site
											{
												OFFSET -1.000603 2.690872 0.366626
											}
										}
									}
								}
								JOINT LeftHandMiddle1
								{
									OFFSET 13.776489 0.000000 0.000000
									CHANNELS 3 Xrotation Yrotation Zrotation
									JOINT LeftHandMiddle2
									{
										OFFSET 3.438232 0.000000 0.000000
										CHANNELS 3 Xrotation Yrotation Zrotation
										JOINT LeftHandMiddle3
										{
											OFFSET 3.691551 0.000000 0.000000
											CHANNELS 3 Xrotation Yrotation Zrotation
											End Site
											{
												OFFSET -1.082298 3.499527 0.457670
											}
										}
									}
								}
								JOINT LeftHandRing1
								{
									OFFSET 13.966164 -0.268127 -3.067488
									CHANNELS 3 Xrotation Yrotation Zrotation
									JOINT LeftHandRing2
									{
										OFFSET 3.162567 0.000000 0.000000
										CHANNELS 3 Xrotation Yrotation Zrotation
										JOINT LeftHandRing3
										{
											OFFSET 3.324348 0.000000 0.000000
											CHANNELS 3 Xrotation Yrotation Zrotation
											End Site
											{
												OFFSET -0.861900 3.184998 0.405154
											}
										}
									}
								}
								JOINT LeftHandPinky1
								{
									OFFSET 13.131393 -0.168503 -5.746925
									CHANNELS 3 Xrotation Yrotation Zrotation
									JOINT LeftHandPinky2
									{
										OFFSET 2.849182 0.000000 0.000000
										CHANNELS 3 Xrotation Yrotation Zrotation
										JOINT LeftHandPinky3
										{
											OFFSET 2.805038 0.000000 0.000000
											CHANNELS 3 Xrotation Yrotation Zrotation
											End Site
											{
												OFFSET -0.882500 2.642609 0.325652
											}
										}
									}
								}
							}
							JOINT Left_Sleeve
							{
								OFFSET 6.592125 -0.646545 0.805568
								CHANNELS 3 Xrotation Yrotation Zrotation
								End Site
								{
									OFFSET -0.000179 20.275787 -0.000000
								}
							}
						}
					}
				}
				JOINT RightShoulder
				{
					OFFSET -5.731700 15.108002 -2.763700
					CHANNELS 3 Xrotation Yrotation Zrotation
					JOINT RightArm
					{
						OFFSET -9.825497 2.506317 -1.597400
						CHANNELS 3 Xrotation Yrotation Zrotation
						JOINT RightForeArm
						{
							OFFSET -21.966242 0.000000 0.000000
							CHANNELS 3 Xrotation Yrotation Zrotation
							JOINT RightHand
							{
								OFFSET -33.879032 0.000000 0.000000
								CHANNELS 3 Xrotation Yrotation Zrotation
								JOINT RightHandThumb1
								{
									OFFSET -6.715286 -2.359680 3.363841
									CHANNELS 3 Xrotation Yrotation Zrotation
									JOINT RightHandThumb2
									{
										OFFSET -2.507072 -1.447464 1.447461
										CHANNELS 3 Xrotation Yrotation Zrotation
										JOINT RightHandThumb3
										{
											OFFSET -2.898338 -1.673355 1.673357
											CHANNELS 3 Xrotation Yrotation Zrotation
											End Site
											{
												OFFSET 0.295959 3.727692 -0.131651
											}
										}
									}
								}
								JOINT RightHandIndex1
								{
									OFFSET -14.190811 -0.254547 3.840278
									CHANNELS 3 Xrotation Yrotation Zrotation
									JOINT RightHandIndex2
									{
										OFFSET -3.551727 0.000000 -0.000000
										CHANNELS 3 Xrotation Yrotation Zrotation
										JOINT RightHandIndex3
										{
											OFFSET -2.894196 0.000000 0.000000
											CHANNELS 3 Xrotation Yrotation Zrotation
											End Site
											{
												OFFSET 1.000603 2.690872 0.366626
											}
										}
									}
								}
								JOINT RightHandMiddle1
								{
									OFFSET -13.776489 0.000000 0.000000
									CHANNELS 3 Xrotation Yrotation Zrotation
									JOINT RightHandMiddle2
									{
										OFFSET -3.438232 0.000000 0.000000
										CHANNELS 3 Xrotation Yrotation Zrotation
										JOINT RightHandMiddle3
										{
											OFFSET -3.691551 0.000000 0.000000
											CHANNELS 3 Xrotation Yrotation Zrotation
											End Site
											{
												OFFSET 1.082298 3.499527 0.457670
											}
										}
									}
								}
								JOINT RightHandRing1
								{
									OFFSET -13.966164 -0.268127 -3.067488
									CHANNELS 3 Xrotation Yrotation Zrotation
									JOINT RightHandRing2
									{
										OFFSET -3.162567 0.000000 0.000000
										CHANNELS 3 Xrotation Yrotation Zrotation
										JOINT RightHandRing3
										{
											OFFSET -3.324348 0.000000 0.000000
											CHANNELS 3 Xrotation Yrotation Zrotation
											End Site
											{
												OFFSET 0.861900 3.184998 0.405154
											}
										}
									}
								}
								JOINT RightHandPinky1
								{
									OFFSET -13.131393 -0.168503 -5.746925
									CHANNELS 3 Xrotation Yrotation Zrotation
									JOINT RightHandPinky2
									{
										OFFSET -2.849182 0.000000 0.000000
										CHANNELS 3 Xrotation Yrotation Zrotation
										JOINT RightHandPinky3
										{
											OFFSET -2.805038 0.000000 0.000000
											CHANNELS 3 Xrotation Yrotation Zrotation
											End Site
											{
												OFFSET 0.882500 2.642609 0.325652
											}
										}
									}
								}
							}
							JOINT Right_Sleeve
							{
								OFFSET -6.592125 -0.646545 0.805568
								CHANNELS 3 Xrotation Yrotation Zrotation
								End Site
								{
									OFFSET 0.000179 20.275787 -0.000000
								}
							}
						}
					}
				}
				JOINT Bind_Right_JacketString
				{
					OFFSET -3.534800 11.969597 7.200700
					CHANNELS 3 Xrotation Yrotation Zrotation
					JOINT Bind_Right_JacketString1
					{
						OFFSET -0.319900 -6.102600 2.794100
						CHANNELS 3 Xrotation Yrotation Zrotation
						End Site
						{
							OFFSET 0.000000 6.719452 0.000000
						}
					}
				}
				JOINT Bind_Left_JacketString
				{
					OFFSET 2.904800 11.969597 7.200700
					CHANNELS 3 Xrotation Yrotation Zrotation
					JOINT Bind_Left_JacketString1
					{
						OFFSET 0.364800 -5.904503 3.186800
						CHANNELS 3 Xrotation Yrotation Zrotation
						End Site
						{
							OFFSET 0.000000 6.719513 0.000000
						}
					}
				}
				JOINT HairE
				{
					OFFSET 5.915200 17.612701 -11.592200
					CHANNELS 3 Xrotation Yrotation Zrotation
					JOINT HairE1
					{
						OFFSET 0.289200 -7.171898 -1.284500
						CHANNELS 3 Xrotation Yrotation Zrotation
						End Site
						{
							OFFSET 0.000000 7.291756 0.000000
						}
					}
				}
				JOINT HairF
				{
					OFFSET -0.864800 17.612701 -11.592200
					CHANNELS 3 Xrotation Yrotation Zrotation
					JOINT HairF1
					{
						OFFSET 0.000000 -14.087097 -2.127501
						CHANNELS 3 Xrotation Yrotation Zrotation
						End Site
						{
							OFFSET 0.000000 14.246841 0.000000
						}
					}
				}
				JOINT HairG
				{
					OFFSET -8.087700 17.612701 -11.592200
					CHANNELS 3 Xrotation Yrotation Zrotation
					JOINT HairG1
					{
						OFFSET -0.293600 -6.081398 -0.910100
						CHANNELS 3 Xrotation Yrotation Zrotation
						End Site
						{
							OFFSET 0.000000 6.156120 0.000000
						}
					}
				}
			}
		}
	}
	JOINT Pouch
	{
		OFFSET 0.000000 4.394501 10.847300
		CHANNELS 3 Xrotation Yrotation Zrotation
		End Site
		{
			OFFSET 0.000000 21.880577 0.000000
		}
	}
	JOINT Bag
	{
		OFFSET -13.229000 4.813004 -0.593300
		CHANNELS 3 Xrotation Yrotation Zrotation
		End Site
		{
			OFFSET 0.000000 21.880577 0.000000
		}
	}
	JOINT OccupyGuyFacialAnim_Joint
	{
		OFFSET 1.000000 -70.206398 -1.655000
		CHANNELS 3 Xrotation Yrotation Zrotation
		End Site
		{
			OFFSET 0.000000 21.880577 0.000000
		}
	}
}
MOTION
Frames: 4
Frame Time: 0.033333
-2.099237 55.038555 -0.322525 36.635806 2.038203 16.030618 -0.000002 0.000000 -0.000001 -84.575644 -20.625266 -0.760402 90.909442 18.813911 6.215601 -0.112212 0.297404 -5.059496 -0.000002 -0.000002 -0.000004 -0.000000 -0.000003 -0.000000 -59.623248 -15.351680 11.575088 65.478367 -22.683089 9.181847 -44.343210 12.621665 -26.660901 0.000000 -0.000000 -0.000000 0.000001 0.000003 -0.000005 20.480828 -0.270081 0.654914 7.515678 -0.660767 -0.296174 15.448104 -1.039470 0.047975 -28.133435 -2.131725 5.520330 -47.793702 0.030236 -0.115468 -0.000000 0.000001 -0.000000 -0.000000 0.000001 -0.000000 -0.000000 0.000001 -0.000001 -0.000000 0.000001 -0.000001 -0.000000 0.000000 -0.000000 -0.000000 0.000001 -0.000001 -0.000000 0.000000 -0.000000 -0.000000 0.000001 -0.000000 -0.000000 0.000001 -0.000000 2.287898 11.409602 9.027324 15.936845 -37.828057 -55.221519 -19.039156 -25.397150 -17.479453 0.318786 2.391519 -22.331508 57.941792 3.450281 30.457449 8.441288 21.134130 3.687167 -0.000002 0.000003 -0.000002 0.393659 -8.706390 8.742874 -0.000030 -0.002441 -0.000978 0.000002 -0.000001 -0.000004 -0.914583 -3.276690 3.615575 -0.003250 -0.014873 -22.772496 -0.000001 0.000004 -0.000000 -0.887730 -3.553138 -17.231193 -0.004277 -0.018079 -25.852995 -0.000001 0.000001 -0.000001 -13.766323 -2.321811 -33.828243 -0.002471 -0.014600 -20.678799 -0.000001 0.000005 0.000002 0.000001 0.000000 -0.000001 3.008916 -7.227059 -1.559895 10.259196 25.512671 60.374214 -1.049095 30.006401 14.557030 2.774314 -13.936174 23.371038 57.942844 -3.450638 -30.455448 8.439446 -21.133695 -3.688600 0.000000 -0.000001 -0.000003 0.393675 8.707081 -8.736261 0.000022 0.002726 0.000071 -0.000002 0.000001 0.000000 -0.914465 3.277508 -3.618974 -0.004073 0.016182 22.775020 0.000004 -0.000002 -0.000001 -0.887568 3.552613 17.232844 -0.003964 0.018090 25.851827 0.000003 -0.000000 -0.000002 -13.764920 2.319731 33.828503 -0.002168 0.016126 20.687140 0.000001 0.000000 0.000001 0.000003 -0.000002 0.000000 -0.000001 -0.000000 -0.000001 -0.000001 0.000001 -0.000000 -0.000001 -0.000000 -0.000000 -0.000001 -0.000000 -0.000000 -0.000001 -0.000000 -0.000001 -0.000001 0.000001 0.000000 -0.000001 -0.000000 -0.000000 -0.000001 -0.000000 -0.000000 -0.000001 -0.000000 -0.000001 -0.000001 0.000001 0.000000 -0.000002 0.000000 -0.000001 -0.000002 0.000000 -0.000001 -0.000002 0.000000 -0.000001 
-1.574696 55.323654 8.028728 37.239926 0.087286 17.837978 0.000003 -0.000001 -0.000002 -89.881574 -20.913600 -0.106560 73.192806 14.890601 9.057789 -0.826150 0.641236 -10.990726 0.000000 0.000000 0.000000 0.000002 -0.000003 -0.000000 -51.848765 -12.779813 12.764813 65.963679 -27.380482 5.346939 -50.368141 10.389267 -19.501223 -0.000001 -0.000000 0.000000 -0.000000 0.000000 0.000000 19.634910 0.875292 -0.212473 6.804257 -0.275972 -0.738542 14.737655 -0.638094 -0.459807 -26.294082 -2.849593 5.504714 -48.425942 -1.616659 0.801271 0.000000 -0.000000 0.000001 0.000000 -0.000000 0.000001 0.000000 -0.000000 0.000000 0.000000 -0.000000 -0.000000 -0.000000 0.000001 -0.000002 0.000000 -0.000000 -0.000000 -0.000000 0.000001 -0.000002 0.000000 -0.000000 0.000001 0.000000 -0.000000 0.000001 2.250707 10.943919 9.008015 15.622651 -37.240927 -55.585319 -17.036256 -25.976593 -17.160410 0.234716 4.056419 -22.352774 57.941799 3.450279 30.457453 8.441288 21.134127 3.687171 0.000002 -0.000001 -0.000005 0.393663 -8.706394 8.742870 -0.000031 -0.002442 -0.000980 -0.000000 0.000001 0.000000 -0.914579 -3.276692 3.615578 -0.003254 -0.014873 -22.772501 0.000000 0.000001 0.000001 -0.887731 -3.553141 -17.231193 -0.004278 -0.018080 -25.852995 0.000001 -0.000000 -0.000000 -13.766323 -2.321816 -33.828240 -0.002472 -0.014596 -20.678801 -0.000001 0.000001 0.000003 0.000001 0.000002 -0.000002 3.016494 -7.123180 -1.499550 11.955197 25.018968 60.312469 -0.453455 32.743483 14.028783 2.543784 -14.833303 22.618346 57.942837 -3.450638 -30.455452 8.439442 -21.133690 -3.688596 0.000002 -0.000001 0.000001 0.393678 8.707082 -8.736261 0.000022 0.002723 0.000072 -0.000002 0.000001 0.000001 -0.914466 3.277507 -3.618972 -0.004069 0.016182 22.775022 0.000003 0.000000 -0.000001 -0.887569 3.552611 17.232842 -0.003967 0.018093 25.851817 0.000004 0.000000 -0.000003 -13.764922 2.319730 33.828496 -0.002171 0.016128 20.687142 0.000004 0.000000 -0.000001 0.000000 -0.000003 0.000003 0.000001 -0.000000 -0.000001 0.000001 -0.000000 -0.000001 0.000001 -0.000000 -0.000001 0.000001 -0.000000 -0.000001 0.000001 -0.000000 -0.000001 0.000001 -0.000000 -0.000001 0.000001 -0.000000 -0.000001 0.000001 -0.000000 -0.000001 0.000001 -0.000000 -0.000001 0.000001 -0.000000 -0.000001 0.000003 -0.000001 -0.000002 0.000003 -0.000001 -0.000002 0.000003 -0.000001 -0.000002 
-1.287632 55.447594 17.125088 37.828641 -1.623198 18.627440 0.000001 0.000000 -0.000001 -87.447520 -17.061263 3.791058 47.175379 8.797132 10.164649 7.468905 -0.200085 -11.795685 -0.000000 -0.000001 0.000000 -0.000003 -0.000001 0.000000 -46.084608 -10.683169 12.779632 69.485277 -30.644190 2.219814 -48.232248 5.857367 -11.467983 0.000001 -0.000000 -0.000001 0.000001 0.000002 -0.000004 18.123767 3.092142 -0.024779 5.679021 -0.059270 -0.635026 13.612193 -0.388700 -0.392682 -22.800281 -4.199009 6.124410 -49.245401 -2.240926 0.369337 -0.000000 0.000001 -0.000001 -0.000000 0.000001 -0.000001 -0.000000 0.000001 -0.000001 -0.000000 0.000001 -0.000001 -0.000001 0.000001 0.000001 -0.000000 0.000001 -0.000001 -0.000001 0.000001 0.000001 -0.000000 0.000001 -0.000001 -0.000000 0.000001 -0.000001 2.469409 10.429396 8.147274 16.072513 -35.466635 -56.472182 -14.413231 -27.143179 -16.736484 0.278802 6.175127 -22.936972 57.941792 3.450282 30.457453 8.441289 21.134125 3.687172 0.000001 0.000001 -0.000001 0.393660 -8.706391 8.742872 -0.000031 -0.002441 -0.000983 0.000003 0.000001 -0.000002 -0.914583 -3.276691 3.615579 -0.003254 -0.014873 -22.772498 0.000003 0.000001 -0.000003 -0.887728 -3.553136 -17.231198 -0.004278 -0.018077 -25.852999 0.000000 -0.000000 -0.000000 -13.766320 -2.321809 -33.828243 -0.002471 -0.014595 -20.678799 -0.000001 0.000001 0.000003 0.000002 0.000001 -0.000002 3.289738 -7.148806 -0.300904 15.020967 23.377470 59.446920 1.305216 34.794022 13.509492 2.647097 -16.842200 22.961774 57.942837 -3.450641 -30.455455 8.439444 -21.133693 -3.688594 -0.000001 -0.000001 0.000000 0.393675 8.707081 -8.736261 0.000020 0.002721 0.000072 -0.000004 0.000001 -0.000001 -0.914468 3.277507 -3.618973 -0.004078 0.016187 22.775022 -0.000002 -0.000000 -0.000001 -0.887570 3.552614 17.232846 -0.003969 0.018096 25.851822 -0.000004 -0.000007 -0.000005 -13.764924 2.319731 33.828506 -0.002167 0.016124 20.687144 0.000000 -0.000001 0.000000 -0.000002 0.000002 -0.000002 -0.000001 0.000001 -0.000000 -0.000002 0.000000 0.000000 -0.000001 0.000001 -0.000000 -0.000001 0.000001 -0.000000 -0.000001 0.000001 -0.000000 -0.000002 0.000000 0.000000 -0.000001 0.000001 -0.000000 -0.000001 0.000001 -0.000000 -0.000001 0.000001 -0.000000 -0.000002 0.000000 0.000000 0.000001 0.000000 -0.000001 0.000001 0.000000 -0.000001 0.000001 0.000000 -0.000001 
-1.125673 55.039055 26.608740 38.024172 -3.774091 18.867001 0.000001 -0.000001 -0.000000 -79.948621 -12.383907 8.803800 21.916535 1.238363 6.952280 20.013832 -1.673744 -12.922754 -0.000000 0.000000 -0.000002 -0.000001 -0.000001 -0.000000 -47.433926 -9.218314 9.398652 82.471345 -24.886026 1.190154 -26.219998 2.756369 -8.502716 0.000000 0.000000 -0.000001 0.000001 0.000001 -0.000003 16.595080 5.339187 0.791643 4.458589 -0.116115 -0.064852 12.395141 -0.401092 0.189812 -19.877394 -5.397478 7.287451 -48.778390 -1.502889 -0.840475 0.000001 0.000002 -0.000000 0.000001 0.000002 -0.000000 0.000001 0.000002 -0.000001 0.000001 0.000002 -0.000000 -0.000000 0.000002 0.000002 0.000001 0.000002 -0.000000 -0.000000 0.000002 0.000002 0.000001 0.000002 -0.000000 0.000001 0.000002 -0.000000 2.886135 10.334392 6.764254 16.816358 -32.664874 -58.005866 -11.764152 -28.419874 -16.229641 0.582183 8.171713 -24.377990 57.941792 3.450283 30.457449 8.441287 21.134123 3.687167 0.000003 -0.000004 -0.000002 0.393659 -8.706389 8.742868 -0.000029 -0.002441 -0.000975 0.000004 0.000000 0.000002 -0.914582 -3.276691 3.615578 -0.003255 -0.014876 -22.772496 -0.000001 0.000000 0.000001 -0.887729 -3.553137 -17.231194 -0.004277 -0.018078 -25.853000 -0.000002 0.000003 0.000001 -13.766319 -2.321811 -33.828236 -0.002472 -0.014596 -20.678797 0.000001 0.000000 -0.000001 0.000001 0.000002 -0.000002 3.795316 -7.547474 1.729212 18.797430 21.654169 57.140126 2.831275 35.477321 13.641055 2.629946 -18.711015 22.903310 57.942837 -3.450642 -30.455452 8.439442 -21.133696 -3.688600 0.000001 -0.000001 -0.000000 0.393676 8.707080 -8.736261 0.000024 0.002723 0.000067 -0.000003 0.000000 -0.000001 -0.914464 3.277508 -3.618974 -0.004065 0.016182 22.775020 0.000001 -0.000002 0.000001 -0.887573 3.552613 17.232846 -0.003968 0.018092 25.851820 0.000001 0.000000 -0.000002 -13.764924 2.319732 33.828503 -0.002167 0.016124 20.687140 -0.000001 -0.000000 0.000001 0.000000 -0.000003 -0.000001 -0.000000 -0.000000 -0.000000 -0.000002 0.000000 -0.000001 -0.000000 -0.000000 0.000000 -0.000000 -0.000000 0.000000 -0.000000 -0.000000 -0.000000 -0.000002 0.000000 -0.000001 -0.000000 -0.000000 0.000000 -0.000000 -0.000000 0.000000 -0.000000 -0.000000 -0.000000 -0.000002 0.000000 -0.000001 0.000001 -0.000001 -0.000000 0.000001 -0.000001 -0.000000 0.000001 -0.000001 -0.000000 
